Patient4_TMGait_0pt4_01_left_36_EMG.mot
version=1
nRows=30
nColumns=33
inDegrees=no
endheader
time	1LAddLong	2LGlutMax	3LGlutMed	4LIliopsoas	5LSemiMemb	6LBicFemLong	7LRecFem	8LVastMed	9LVastLat	10LGasMed	11LTibAnt	12lTibPost	13LPeroneusLong	14LSol	15LExtDigLong	16LFlexDigLong	17RAddLong	18RGlutMax	19RGlutMed	20RIliopsoas	21RSemiMemb	22RBicFemLong	23RRecFem	24RVastMed	25RVastLat	26RGasMed	27RTibAnt	28RTibPost	29RPeroneusLong	30RSol	31RExtDigLong	32RFlexDigLong
44.84	0.016937	0.62149	0.003204	-0.016785	0.010071	0.015869	0.38773	0.011597	0.097504	-0.070648	0.064392	0.000305	0.004578	-0.032196	0.071259	0.02533	0.003967	0.03891	0.289	0.01297	0.063782	0.14557	0.019226	-0.03952	0.21042	0.031433	-0.019684	0.050964	-0.72845	-0.18402	-0.00412	-0.006714
44.841	-0.001526	0.57938	-0.019989	-0.006561	0.01236	0.033112	0.36835	0.016937	0.10529	-0.12634	0.10971	0.000305	0.051575	-0.012512	-0.059814	0.015411	-0.037079	0.14679	-0.099335	0.061798	-0.10361	0.11551	0.10849	0.21286	0.13077	0.055237	-0.012512	0.025787	-0.23514	-0.012817	-0.003357	0.003815
44.842	0.003052	0.55008	-0.001678	-0.003967	-0.009308	0.041351	0.36713	0.023193	0.10864	-0.11581	0.11826	-0.001373	-0.061951	-0.010071	0.076447	0.013275	-0.045776	0.33752	0.018005	0.021515	-0.10605	-0.085907	0.06546	0.17899	0.1001	0.075531	-0.057526	-0.008087	0.024414	0.11368	-0.00351	0.011902
44.843	-0.003204	0.52673	0.012054	-0.003662	0.009308	0.026398	0.34668	0.005341	0.10788	-0.072632	0.063934	-0.007019	-0.13886	-0.010071	-0.12711	0.012207	-0.032043	0.44083	0.22522	-0.095062	0.12192	-0.079041	-0.11429	-0.026398	0.085907	0.067139	-0.074158	-0.1648	-0.4361	-0.26245	-0.003357	0.001526
44.844	0.000458	0.51987	0.031891	-0.001984	0.007629	0.024719	0.32013	0.029602	0.12253	0.011292	0.04837	-0.00473	-0.14603	0.003967	-0.1294	0.018768	-0.00351	0.53711	0.16083	-0.1384	0.075073	-0.10284	-0.052948	-0.000458	0.065002	0.023499	-0.068512	-0.36407	-0.23117	-0.18875	-0.002594	0.004425
44.845	-0.008698	0.51788	0.019073	0.012207	-0.004425	0.024872	0.3392	-0.027924	0.13382	0.023651	-0.009155	0.000916	-0.018768	0.020294	-0.13672	0.023499	0.028229	0.62332	0.18646	-0.074768	0.056763	-0.1471	0.09201	0.014801	0.054779	-0.068665	0.040588	0.23895	-0.38055	0.31876	-0.002747	-0.001678
44.846	-0.009918	0.45548	-0.038757	0.016937	0.002289	0.012817	0.31174	0.010529	0.12482	0.019836	-0.033264	-0.007477	0.023804	0.007935	-0.098114	0.025787	0.042572	0.73181	0.26123	-0.030518	0.013885	-0.14023	0.12772	-0.013123	0.027924	-0.082397	0.13763	0.11963	-0.11368	0.084839	-0.001984	-0.010071
44.847	-0.006409	0.43961	-0.033417	-0.006104	-0.002136	0.029297	0.28992	0.00473	0.12238	0.015564	-0.005341	-0.000458	0.013428	-0.003815	-0.12436	0.020905	0.02655	0.76752	0.2066	0.04776	-0.033264	-0.099945	0.1796	-0.045166	0.012512	-0.071869	0.14694	-0.002136	0.49011	-0.081635	0.001221	-0.001831
44.848	0.004425	0.3891	-0.007782	0.00061	-0.001373	-0.001678	0.2652	0.006104	0.12894	0.032349	-0.074921	-0.002594	0.027771	-0.038757	0.015106	0.015106	0.001373	0.75867	0.001373	0.053864	-0.036011	-0.026245	0.15411	0.002747	-0.010986	-0.10315	-0.11536	0.08606	0.21866	-0.025024	-0.003204	-0.000305
44.849	-0.002136	0.3775	-0.018005	0.013123	0.001831	-0.00885	0.23575	0.002289	0.12054	0.041962	-0.1265	0.003662	0.04303	-0.0354	0.61157	0.013733	-0.033569	0.73578	-0.078735	0.0737	0.032043	0.0177	-0.02121	-0.009308	-0.024414	-0.053558	-0.23743	0.084381	-0.028229	0.354	-0.002289	-0.010986
44.85	0.003357	0.35187	-0.041046	0.006256	0.008698	-0.01358	0.23377	0.004272	0.11673	0.046997	-0.072479	-0.005798	0.001831	-0.02121	-0.14847	0.019684	-0.014343	0.61691	0.026398	0.19928	-0.12528	0.017548	-0.22003	0.036774	0.028839	-0.007477	-0.17273	0.091858	-0.16174	-0.23682	-0.001373	-0.01358
44.851	0.00351	0.31326	-0.028076	0.003052	0.009155	-0.007172	0.20126	0.005341	0.12207	0.020905	-0.10315	-0.000458	0.027618	0.041962	-0.18707	0.017548	0.00351	0.61768	0.21729	0.077057	-0.22324	-0.0383	0.050507	0.039215	0.00473	0.010071	-0.063171	0.066223	-0.26993	0.027618	-0.001831	-0.000458
44.852	0.003815	0.35416	-0.034027	0.015259	0.001678	0.009003	0.21057	0.007782	0.11383	-0.002899	-0.1268	-0.005798	0.028229	0.060272	-0.086365	0.020294	-0.012512	0.46845	0.00946	0.051727	-0.12756	-0.051727	0.049744	0.0354	-0.061798	-0.008698	-0.068817	0.028229	-0.24506	0.83527	-0.000458	0.003357
44.853	0.004883	0.33142	-0.015106	0.016479	0.003357	0.015411	0.21729	0.011902	0.10254	-0.001678	-0.023804	-0.003204	-0.003662	0.10071	-0.016632	0.017853	-0.026398	0.35126	0.033875	-0.00412	-0.11246	-0.037537	-0.31403	-0.00412	-0.049744	-0.018616	-0.48966	0.048981	-0.003052	0.73776	0.002899	-0.001373
44.854	0.006866	0.30838	-0.000305	0.000153	0.005798	0.012054	0.19852	0.007935	0.10071	-0.000916	0.039063	-0.024261	-0.044403	0.064545	0.058136	0.013428	-0.009613	0.27481	0.058899	-0.017548	0.13855	-0.068359	-0.33249	0.020752	0.084534	-0.022736	-0.058746	0.027618	-0.004883	0.233	-0.00061	0.000305
44.855	0.006256	0.30991	0.014191	0.004883	0.010529	0.019989	0.18036	0.003052	0.10269	-0.014954	0.15289	0.003662	0.019531	0.006714	0.028687	0.012054	0.016479	0.22964	0.17044	0.002747	0.07431	-0.075073	-0.16892	0.021515	0.075989	-0.028839	0.55695	-0.003052	-0.2005	0.11307	-0.001526	-0.001831
44.856	0.010529	0.28122	0.032043	-0.000763	0.012054	0.014648	0.19943	0.000305	0.10346	-0.026855	0.13397	-0.003662	0.06958	-0.001221	0.14465	0.005798	0.070801	0.19348	0.027313	0.028839	-0.074615	-0.092163	0.027466	-0.077667	-0.002747	-0.028076	0.49103	-0.004272	-0.29388	0.055389	-0.002899	-0.006256
44.857	0.011139	0.25833	0.003357	-0.010834	0.009308	0.001068	0.17471	0.004272	0.10132	-0.028381	0.12726	-0.007782	0.050049	0.001831	0.24536	-0.00412	0.057068	0.18601	0.13168	-0.025787	-0.17761	-0.090027	-0.071411	-0.061035	-0.026855	-0.005035	0.30411	-0.009308	0.058594	-0.40955	-0.004272	-0.003815
44.858	0.020905	0.25528	-0.022736	0.005646	0.002747	-0.020294	0.1535	0.003967	0.10529	-0.030365	0.030823	-0.007019	0.039368	0.039368	0.13596	0.00824	0.016479	0.13672	0.43747	-0.096283	-0.19577	-0.018158	-0.12985	-0.055237	0.028534	-0.016785	0.17944	-0.00885	0.10559	-0.6398	-0.007324	0.000153
44.859	0.002594	0.24353	-0.0354	-0.007019	0.014648	-0.019073	0.15488	0.003815	0.094147	-0.044861	0.12436	0	0.036926	0.04364	0.053558	0.020294	-0.022125	0.11231	0.36377	-0.11231	0.019836	0.000153	-0.083466	-0.090637	0.047302	0.024567	0.12161	-0.012512	-0.15656	-0.69519	-0.00351	-0.000153
44.86	0.007172	0.24063	-0.012054	-0.015411	0.01709	-0.017395	0.14038	0.004272	0.099335	-0.059052	0.14023	-0.001984	0.045471	0.055847	0.37933	0.008545	-0.042114	0.04837	0.0354	-0.063934	-0.036316	0.034332	-0.12375	-0.14465	0.010223	-0.015869	-0.041962	0.009613	-0.42694	-0.58746	-0.000305	-0.00061
44.861	0.00824	0.21118	0.00351	-0.01297	0.015564	-0.012054	0.14465	0.010986	0.08728	-0.029297	-0.022888	-0.008087	0.011597	0.009918	-0.29388	0.005035	-0.03479	-0.043488	-0.36331	-0.007935	-0.19012	0.072784	-0.091705	-0.06546	0.02243	-0.02533	-0.09903	-0.033417	-0.42893	-0.40268	-0.001831	0.002289
44.862	0.009003	0.15823	0.018005	0.005646	0.014954	-0.029907	0.13626	0.001831	0.096741	0.024414	-0.18509	-0.005798	0.019531	-0.059662	-0.63202	-0.001068	-0.016632	-0.09079	0.11581	-0.017395	-0.13412	0.020905	-0.093231	0.03952	0.015717	-0.090179	0.008698	-0.31952	-0.51804	-0.32196	0.000153	0.007629
44.863	0.015106	0.17364	0.03479	0.028381	-0.001678	-0.043793	0.10895	0.001984	0.078583	-0.026245	-0.088196	-0.00351	0.11231	-0.064545	-0.27435	0.004578	-0.025635	-0.092468	0.10925	-0.004272	0.071564	-0.033417	-0.036163	0.11292	-0.007782	-0.16129	0.044708	-0.13886	-0.80582	-0.39505	0.000305	0.007935
44.864	0.019836	0.19516	0.037689	0.007477	0.000458	-0.044556	0.103	0.002594	0.092163	-0.023041	-0.001984	-0.011444	0.047607	-0.054779	-0.16541	0.006561	-0.032806	-0.038147	0.040741	0.014191	0.22461	-0.066071	0.019073	0.14252	-0.003662	-0.010376	0.005035	-0.05249	-0.57419	0.093842	-0.001068	-0.001831
44.865	0.018768	0.14801	-0.009308	0.019989	0.011597	-0.045929	0.097961	0.002136	0.10361	-0.011139	-0.061646	-0.001831	0.021973	-0.051117	-0.22736	0.003357	-0.01709	-0.10803	-0.20447	0.051727	0.18662	-0.12665	0.03952	-0.014801	-0.068207	0.026093	-0.031281	-0.16876	-0.28229	0.54184	-0.001373	-0.002441
44.866	0.023499	0.10803	-0.045013	0.015259	0.009918	-0.031738	0.084991	0.004883	0.10254	-0.036316	-0.056915	-0.00473	0.024567	-0.067139	-0.15991	0.003967	-0.008698	-0.2388	-0.044098	0.089874	0.015717	-0.14862	0.082245	-0.079651	-0.084076	-0.017548	-0.10056	-0.26367	0.24414	0.5339	0.001221	-0.011292
44.867	0.003662	0.098114	-0.071869	0.008392	0.011292	-0.049744	0.059357	0.003204	0.11246	-0.10315	-0.02533	-0.009003	-0.024872	-0.050659	-0.052948	0.00824	0	-0.28809	0.029297	0.12573	-0.13901	-0.11154	0.20172	-0.092316	-0.11231	0.005798	0.049286	0.54764	0.39688	-0.008545	-0.002136	-0.023804
44.868	0.015259	0.10925	-0.070801	0.001678	0.013885	-0.050812	0.065613	0.001526	0.1033	-0.052948	0.00412	-0.002136	-0.061646	-0.027924	0.02121	0.003967	-0.018005	-0.3305	0.54672	0.11353	0.045319	-0.13519	0.16968	-0.001678	-0.015564	0.021667	0.30777	0.36911	0.24689	-0.12192	-0.009003	-0.026093
44.869	0.016937	0.11261	-0.043335	0.004883	0.021362	-0.069733	0.041046	0.004578	0.097351	-0.04425	-0.024414	-0.002899	-0.080261	0.064545	0.10193	0.000458	-0.004272	-0.26566	0.92041	0.03006	0.039978	-0.066986	0.25055	0.048676	0.041962	0.084686	0.26642	0.19241	0.2298	0.64102	-0.003052	0.002594
